<svg xmlns="http://www.w3.org/2000/svg" version="1.1" viewBox="44 53 150 100" height="300"
     width="300">
    <g transform="matrix(1,0,0,1,50,35)">
        <svg viewBox="0 0 137.16599311424187 137.16599311424187" height="137.16599311424187" width="137.16599311424187">
            <g>
                <svg xmlns="http://www.w3.org/2000/svg"
                     version="1.1"/>
            </g>
            <g id="icon-0">
                <svg viewBox="0 0 137.16599311424187 137.16599311424187" height="137.16599311424187"
                     width="137.16599311424187">
                    <g>
                        <path d="M0 68.583c0-37.877 30.706-68.583 68.583-68.583 37.877 0 68.583 30.706 68.583 68.583 0 37.877-30.706 68.583-68.583 68.583-37.877 0-68.583-30.706-68.583-68.583zM68.583 133.801c36.019 0 65.218-29.199 65.218-65.218 0-36.019-29.199-65.218-65.218-65.218-36.019 0-65.218 29.199-65.218 65.218 0 36.019 29.199 65.218 65.218 65.218z"
                              data-fill-palette-color="accent" fill="#ffffff" stroke="transparent"/>
                        <ellipse rx="67.89716659154972" ry="67.89716659154972" cx="68.58299655712094"
                                 cy="68.58299655712094" fill="#161618" stroke="transparent" stroke-width="0"
                                 fill-opacity="1" data-fill-palette-color="accent"/>
                    </g>
                    <g transform="matrix(1,0,0,1,34.74049677911009,27.8076828831811)">
                        <svg viewBox="0 0 67.6849995560217 81.55062734787967" height="81.55062734787967"
                             width="67.6849995560217">
                            <g>
                                <svg xmlns="http://www.w3.org/2000/svg" data-name="Layer 1"
                                     viewBox="11.799996680494063 3.9999999999999964 76.43854607867083 92.09738386887277"
                                     x="0" y="0" height="81.55062734787967" width="67.6849995560217"
                                     class="icon-symbol-0" fill="#ffffff" data-fill-palette-color="quaternary"
                                     id="symbol-0">
                                    <g data-name="Group" fill="#ffffff" data-fill-palette-color="quaternary">
                                        <path data-name="Compound Path"
                                              d="M81.2 40.3V28.7H53V23.9a10.3 10.3 0 0 0 7.2-9.7 10.2 10.2 0 0 0-20.4 0A10.3 10.3 0 0 0 47 23.9v4.8H18.8V40.3a10.4 10.4 0 0 0-7 9.7 10.2 10.2 0 1 0 13-9.8V34.7H47v5.6a10.1 10.1 0 0 0 0 19.4v5.8H32.3V76.2a10.2 10.2 0 1 0 6-0.1V71.5H61.7v4.6a10.1 10.1 0 0 0-7.4 9.7 10.2 10.2 0 1 0 13.4-9.6V65.5H53V59.7a10.1 10.1 0 0 0 0-19.4V34.7H75.2v5.5a10.2 10.2 0 1 0 6 0.1ZM26.2 50A4.2 4.2 0 1 1 22 45.8 4.2 4.2 0 0 1 26.2 50ZM78 54.2A4.2 4.2 0 1 1 82.2 50 4.2 4.2 0 0 1 78 54.2Z"
                                              fill="#ffffff" data-fill-palette-color="quaternary"/>
                                    </g>
                                </svg>
                            </g>
                        </svg>
                    </g>
                </svg>
            </g>
        </svg>
    </g>
    <g/>
</svg>