<?xml version="1.0" encoding="UTF-8" standalone="no"?>
<!-- Created with Inkscape (http://www.inkscape.org/) -->

<svg
        width="172.61601mm"
        height="212.74454mm"
        viewBox="0 0 172.61601 212.74454"
        version="1.1"
        id="svg5"
        xml:space="preserve"
        xmlns:xlink="http://www.w3.org/1999/xlink"
        xmlns="http://www.w3.org/2000/svg"
><defs
     id="defs2"><linearGradient
       id="grad-fill"
       x1="0"
       y1="0"
       x2="1"
       y2="0"><stop
         offset="0%"
         stop-color="#0a063f"
         stop-opacity="1"
         id="stop25" /><stop
         offset="50%"
         stop-color="#0d0948"
         stop-opacity="1"
         id="stop27" /><stop
         offset="100%"
         stop-color="#0c0213"
         stop-opacity="1"
         id="stop29" /></linearGradient><linearGradient
       xlink:href="#grad-fill"
       id="linearGradient157"
       x1="2.1352451"
       y1="-0.045880482"
       x2="24.144728"
       y2="-0.045880482"
       gradientTransform="scale(0.91324296,1.0949989)"
       gradientUnits="userSpaceOnUse" /><linearGradient
       xlink:href="#grad-fill"
       id="linearGradient159"
       x1="-0.10073491"
       y1="-0.094781414"
       x2="24.1008"
       y2="-0.094781414"
       gradientTransform="scale(0.99999734)"
       gradientUnits="userSpaceOnUse" /><linearGradient
       xlink:href="#grad-fill"
       id="linearGradient161"
       x1="2.1352451"
       y1="-0.045880482"
       x2="24.144728"
       y2="-0.045880482"
       gradientTransform="scale(0.91324296,1.0949989)"
       gradientUnits="userSpaceOnUse" /><filter
       style="color-interpolation-filters:sRGB"
       id="filter8458"
       x="-0.71177161"
       y="-0.60760027"
       width="2.5257187"
       height="2.331496"><feFlood
         flood-opacity="0.141176"
         flood-color="rgb(0,0,0)"
         result="flood"
         id="feFlood8448" /><feComposite
         in="flood"
         in2="SourceGraphic"
         operator="in"
         result="composite1"
         id="feComposite8450" /><feGaussianBlur
         in="composite1"
         stdDeviation="2.7"
         result="blur"
         id="feGaussianBlur8452" /><feOffset
         dx="1"
         dy="2"
         result="offset"
         id="feOffset8454" /><feComposite
         in="SourceGraphic"
         in2="offset"
         result="fbSourceGraphic"
         id="feComposite8456" /><feColorMatrix
         result="fbSourceGraphicAlpha"
         in="fbSourceGraphic"
         values="0 0 0 -1 0 0 0 0 -1 0 0 0 0 -1 0 0 0 0 1 0"
         id="feColorMatrix8808" /><feFlood
         id="feFlood8810"
         flood-opacity="0.0705882"
         flood-color="rgb(0,0,0)"
         result="flood"
         in="fbSourceGraphic" /><feComposite
         in2="fbSourceGraphic"
         id="feComposite8812"
         in="flood"
         operator="in"
         result="composite1" /><feGaussianBlur
         id="feGaussianBlur8814"
         in="composite1"
         stdDeviation="3"
         result="blur" /><feOffset
         id="feOffset8816"
         dx="1"
         dy="1"
         result="offset" /><feComposite
         in2="offset"
         id="feComposite8818"
         in="fbSourceGraphic"
         result="fbSourceGraphic" /><feColorMatrix
         result="fbSourceGraphicAlpha"
         in="fbSourceGraphic"
         values="0 0 0 -1 0 0 0 0 -1 0 0 0 0 -1 0 0 0 0 1 0"
         id="feColorMatrix8832" /><feFlood
         id="feFlood8834"
         flood-opacity="0.0705882"
         flood-color="rgb(0,0,0)"
         result="flood"
         in="fbSourceGraphic" /><feComposite
         in2="fbSourceGraphic"
         id="feComposite8836"
         in="flood"
         operator="in"
         result="composite1" /><feGaussianBlur
         id="feGaussianBlur8838"
         in="composite1"
         stdDeviation="3"
         result="blur" /><feOffset
         id="feOffset8840"
         dx="1"
         dy="1"
         result="offset" /><feComposite
         in2="offset"
         id="feComposite8842"
         in="fbSourceGraphic"
         result="composite2" /></filter><clipPath
        id="clipPath15255"><rect
         style="opacity:1;fill:none;fill-opacity:1;stroke:#282c4c;stroke-width:0.264583;stroke-dasharray:none;stroke-opacity:0.707819"
         id="rect15257"
         width="210"
         height="246.00392"
         x="0"
         y="0" /></clipPath><clipPath
        id="clipPath15259"><rect
         style="opacity:1;fill:none;fill-opacity:1;stroke:#282c4c;stroke-width:0.0739856;stroke-dasharray:none;stroke-opacity:0.707819"
         id="rect15261"
         width="58.722485"
         height="68.790291"
         x="-17.361242"
         y="-11.443616" /></clipPath><clipPath
        id="clipPath15263"><rect
         style="opacity:1;fill:none;fill-opacity:1;stroke:#282c4c;stroke-width:0.0369928;stroke-dasharray:none;stroke-opacity:0.707819"
         id="rect15265"
         width="29.361242"
         height="34.395145"
         x="-2.6806207"
         y="-1.2218081" /></clipPath><clipPath
        id="clipPath16034"><rect
         style="opacity:1;fill:none;fill-opacity:1;stroke:#282c4c;stroke-width:0.0369928;stroke-dasharray:none;stroke-opacity:0.707819;filter:url(#filter8458);"
         id="rect16036"
         width="29.361238"
         height="34.395142"
         x="-2.6806209"
         y="-1.2218081" /></clipPath></defs><g
     id="layer1"
     style="display:inline"
     transform="translate(-18.692004,-8.3793972)"><g
       style="fill:url(#linearGradient161);stroke:#101010;stroke-width:0.1;stroke-opacity:1;"
       id="g47"
       transform="matrix(7.1522862,0,0,7.1522862,19.172567,8.7387214)"
       clip-path="url(#clipPath16034)"><text
         xml:space="preserve"
         style="font-style:normal;font-variant:normal;font-weight:normal;font-stretch:normal;font-size:38.8056px;font-family:Tahoma;-inkscape-font-specification:'Tahoma, Normal';font-variant-ligatures:normal;font-variant-caps:normal;font-variant-numeric:normal;font-variant-east-asian:normal;display:inline;opacity:1;fill:#0b0742;fill-opacity:1;stroke:#282c4c;stroke-width:0.264583;stroke-dasharray:none;stroke-opacity:0.707819"
         x="15.906295"
         y="220.40425"
         id="text267"
         clip-path="url(#clipPath15255)"
         transform="matrix(0.13981544,0,0,0.13981544,-2.6806208,-1.2218081)"><tspan
           id="tspan265"
           style="font-style:normal;font-variant:normal;font-weight:normal;font-stretch:normal;font-size:38.8056px;font-family:Tahoma;-inkscape-font-specification:'Tahoma, Normal';font-variant-ligatures:normal;font-variant-caps:normal;font-variant-numeric:normal;font-variant-east-asian:normal;fill:#0b0742;fill-opacity:1;stroke:#282c4c;stroke-width:0.264583;stroke-dasharray:none;stroke-opacity:0.707819"
           x="15.906295"
           y="220.40425"><tspan
             style="font-style:normal;font-variant:normal;font-weight:bold;font-stretch:normal;font-size:38.8056px;font-family:Tahoma;-inkscape-font-specification:'Tahoma, Bold';font-variant-ligatures:normal;font-variant-caps:normal;font-variant-numeric:normal;font-variant-east-asian:normal;stroke:#282c4c;stroke-width:0.264583;stroke-dasharray:none;stroke-opacity:0.707819"
             id="tspan1593">Fast</tspan><tspan
             style="font-style:normal;font-variant:normal;font-weight:normal;font-stretch:normal;font-size:38.8056px;font-family:Tahoma;-inkscape-font-specification:'Tahoma, Normal';font-variant-ligatures:normal;font-variant-caps:normal;font-variant-numeric:normal;font-variant-east-asian:normal;fill:#b3b3b3;stroke:#282c4c;stroke-width:0.264583;stroke-dasharray:none;stroke-opacity:0.707819"
             id="tspan1489">Chain</tspan></tspan></text><path
         d="M 18.581,2.14 12.316,0.051 a 1,1 0 0 0 -0.632,0 L 5.418,2.14 A 4.993,4.993 0 0 0 2,6.883 V 12 c 0,7.563 9.2,11.74 9.594,11.914 a 1,1 0 0 0 0.812,0 C 12.8,23.74 22,19.563 22,12 V 6.883 A 4.993,4.993 0 0 0 18.581,2.14 Z M 20,12 c 0,5.455 -6.319,9.033 -8,9.889 C 10.317,21.036 4,17.469 4,12 V 6.883 A 3,3 0 0 1 6.051,4.037 L 12,2.054 17.948,4.037 A 3,3 0 0 1 20,6.883 Z"
         id="path34"
         style="display:inline;fill:url(#linearGradient157)"
         clip-path="url(#clipPath15263)" /><path
         d="M 21.864,18.127 A 5.337,5.337 0 0 0 16.674,14 H 13.5 v -1.616 a 6.282,6.282 0 1 0 -3,0 V 14 H 7.326 a 5.337,5.337 0 0 0 -5.19,4.127 3,3 0 1 0 2.921,0.69 A 2.331,2.331 0 0 1 7.326,17 H 10.5 v 1.4 a 3,3 0 1 0 3,0 V 17 h 3.174 a 2.331,2.331 0 0 1 2.269,1.817 3,3 0 1 0 2.921,-0.69 z M 8.718,6.283 A 3.282,3.282 0 1 1 12,9.565 3.286,3.286 0 0 1 8.718,6.283 Z"
         stroke-width="0.2"
         transform="matrix(0.5,0,0,0.5,6,4.5)"
         id="path36"
         style="display:inline;fill:url(#linearGradient159)"
         clip-path="url(#clipPath15259)" /></g></g></svg>
