<svg xmlns="http://www.w3.org/2000/svg" version="1.1" xmlns:xlink="http://www.w3.org/1999/xlink" xmlns:svgjs="http://svgjs.dev/svgjs" width="1000" height="1000" viewBox="0 0 1000 1000"><rect width="1000" height="1000" fill="#161618"></rect><g transform="matrix(0.7,0,0,0.7,150.56158192090396,12.145344129554644)"><svg xmlns="http://www.w3.org/2000/svg" version="1.1" xmlns:xlink="http://www.w3.org/1999/xlink" xmlns:svgjs="http://svgjs.com/svgjs" viewBox="0 0 177 247" data-background-color="#161618" preserveAspectRatio="xMidYMid meet" height="1395" width="1000"><defs></defs><g id="tight-bounds" transform="matrix(1,0,0,1,-0.1419999999999959,-0.09999999999999432)"><svg viewBox="0 0 177.28364881045175 247.2" height="247.2" width="177.28364881045175"><g><svg xmlns="http://www.w3.org/2000/svg" version="1.1" xmlns:xlink="http://www.w3.org/1999/xlink" xmlns:svgjs="http://svgjs.com/svgjs"></svg></g><g><svg viewBox="0 0 177.28364881045175 247.2" height="247.2" width="177.28364881045175"><g transform="matrix(1,0,0,1,0,47.215199999999996)"><svg viewBox="0 0 177.28364881045175 152.7696" height="152.7696" width="177.28364881045175"><g><svg viewBox="0 0 244.43135999999998 210.63240375078811" height="152.7696" width="177.28364881045175"><g transform="matrix(1,0,0,1,0,154.78413932061937)"><svg viewBox="0 0 244.43135999999998 55.848264430168726" height="55.848264430168726" width="244.43135999999998"><g><svg viewBox="0 0 244.43135999999998 55.848264430168726" height="55.848264430168726" width="244.43135999999998"><g><svg viewBox="0 0 244.43135999999998 37.314564391080616" height="37.314564391080616" width="244.43135999999998"><g transform="matrix(1,0,0,1,0,0)"><svg width="244.43135999999998" viewBox="1.85 -39.55 262.33 40.05" height="37.314564391080616" data-palette-color="#ffffff"><g class="undefined-text-0" data-fill-palette-color="primary" id="text-0"><path d="M4.45 0L4.45 0Q3.35 0 2.6-0.75 1.85-1.5 1.85-2.6L1.85-2.6 1.85-36.45Q1.85-37.6 2.6-38.33 3.35-39.05 4.45-39.05L4.45-39.05 27.05-39.05Q28.2-39.05 28.9-38.38 29.6-37.7 29.6-36.6L29.6-36.6Q29.6-35.55 28.9-34.9 28.2-34.25 27.05-34.25L27.05-34.25 7.05-34.25 7.05-22.1 21.4-22.1Q22.55-22.1 23.25-21.43 23.95-20.75 23.95-19.7L23.95-19.7Q23.95-18.65 23.25-17.98 22.55-17.3 21.4-17.3L21.4-17.3 7.05-17.3 7.05-2.6Q7.05-1.5 6.3-0.75 5.55 0 4.45 0ZM47.15 0.2L47.15 0.2Q43.5 0.2 40.6-1.63 37.7-3.45 36.02-6.58 34.35-9.7 34.35-13.65L34.35-13.65Q34.35-17.6 36.17-20.75 38-23.9 41.12-25.73 44.25-27.55 48.15-27.55L48.15-27.55Q52.05-27.55 55.15-25.73 58.25-23.9 60.07-20.75 61.9-17.6 61.9-13.65L61.9-13.65 59.95-13.65Q59.95-9.7 58.27-6.58 56.6-3.45 53.7-1.63 50.8 0.2 47.15 0.2ZM48.15-4.3L48.15-4.3Q50.7-4.3 52.7-5.53 54.7-6.75 55.85-8.88 57-11 57-13.65L57-13.65Q57-16.35 55.85-18.48 54.7-20.6 52.7-21.83 50.7-23.05 48.15-23.05L48.15-23.05Q45.65-23.05 43.62-21.83 41.6-20.6 40.42-18.48 39.25-16.35 39.25-13.65L39.25-13.65Q39.25-11 40.42-8.88 41.6-6.75 43.62-5.53 45.65-4.3 48.15-4.3ZM59.35 0.05L59.35 0.05Q58.25 0.05 57.52-0.68 56.8-1.4 56.8-2.5L56.8-2.5 56.8-10.15 57.75-15.45 61.9-13.65 61.9-2.5Q61.9-1.4 61.17-0.68 60.45 0.05 59.35 0.05ZM79.45 0.2L79.45 0.2Q75.95 0.2 72.97-0.88 70-1.95 68.34-3.6L68.34-3.6Q67.59-4.4 67.72-5.43 67.84-6.45 68.7-7.1L68.7-7.1Q69.7-7.9 70.67-7.78 71.65-7.65 72.34-6.9L72.34-6.9Q73.2-5.95 75.07-5.13 76.95-4.3 79.25-4.3L79.25-4.3Q82.15-4.3 83.67-5.25 85.2-6.2 85.25-7.7L85.25-7.7Q85.3-9.2 83.82-10.3 82.34-11.4 78.45-12.1L78.45-12.1Q73.4-13.1 71.12-15.1 68.84-17.1 68.84-20L68.84-20Q68.84-22.55 70.34-24.23 71.84-25.9 74.2-26.73 76.55-27.55 79.09-27.55L79.09-27.55Q82.4-27.55 84.95-26.5 87.5-25.45 89-23.6L89-23.6Q89.7-22.8 89.65-21.93 89.59-21.05 88.8-20.45L88.8-20.45Q88-19.9 86.9-20.1 85.8-20.3 85.05-21L85.05-21Q83.8-22.2 82.34-22.65 80.9-23.1 79-23.1L79-23.1Q76.8-23.1 75.27-22.35 73.75-21.6 73.75-20.15L73.75-20.15Q73.75-19.25 74.22-18.53 74.7-17.8 76.09-17.23 77.5-16.65 80.2-16.1L80.2-16.1Q83.95-15.35 86.12-14.2 88.3-13.05 89.25-11.53 90.2-10 90.2-8L90.2-8Q90.2-5.7 88.97-3.85 87.75-2 85.37-0.9 83 0.2 79.45 0.2ZM107.49 0L106.59 0Q104.09 0 102.09-1.28 100.09-2.55 98.94-4.75 97.79-6.95 97.79-9.7L97.79-9.7 97.79-33.55Q97.79-34.65 98.49-35.35 99.19-36.05 100.29-36.05L100.29-36.05Q101.39-36.05 102.09-35.35 102.79-34.65 102.79-33.55L102.79-33.55 102.79-9.7Q102.79-7.7 103.89-6.35 104.99-5 106.59-5L106.59-5 108.29-5Q109.19-5 109.82-4.3 110.44-3.6 110.44-2.5L110.44-2.5Q110.44-1.4 109.62-0.7 108.79 0 107.49 0L107.49 0ZM107.04-22.05L95.49-22.05Q94.44-22.05 93.79-22.65 93.14-23.25 93.14-24.15L93.14-24.15Q93.14-25.15 93.79-25.75 94.44-26.35 95.49-26.35L95.49-26.35 107.04-26.35Q108.09-26.35 108.74-25.75 109.39-25.15 109.39-24.15L109.39-24.15Q109.39-23.25 108.74-22.65 108.09-22.05 107.04-22.05L107.04-22.05ZM134.69 0.5L134.69 0.5Q130.64 0.5 127.12-1.03 123.59-2.55 120.97-5.28 118.34-8 116.87-11.65 115.39-15.3 115.39-19.55L115.39-19.55Q115.39-23.75 116.87-27.38 118.34-31 120.97-33.73 123.59-36.45 127.09-38 130.59-39.55 134.69-39.55L134.69-39.55Q138.54-39.55 141.31-38.55 144.09-37.55 146.89-35.25L146.89-35.25Q147.29-34.95 147.52-34.63 147.74-34.3 147.81-33.98 147.89-33.65 147.89-33.2L147.89-33.2Q147.89-32.25 147.22-31.63 146.54-31 145.59-30.93 144.64-30.85 143.74-31.55L143.74-31.55Q141.89-33.15 139.92-34 137.94-34.85 134.69-34.85L134.69-34.85Q131.74-34.85 129.14-33.65 126.54-32.45 124.57-30.35 122.59-28.25 121.49-25.48 120.39-22.7 120.39-19.55L120.39-19.55Q120.39-16.35 121.49-13.58 122.59-10.8 124.57-8.7 126.54-6.6 129.14-5.43 131.74-4.25 134.69-4.25L134.69-4.25Q137.24-4.25 139.52-5.13 141.79-6 143.89-7.55L143.89-7.55Q144.79-8.2 145.67-8.13 146.54-8.05 147.14-7.43 147.74-6.8 147.74-5.7L147.74-5.7Q147.74-5.2 147.54-4.73 147.34-4.25 146.94-3.85L146.94-3.85Q144.24-1.7 141.17-0.6 138.09 0.5 134.69 0.5ZM178.64 0.05L178.64 0.05Q177.54 0.05 176.81-0.68 176.09-1.4 176.09-2.5L176.09-2.5 176.09-14.8Q176.09-17.65 175.04-19.45 173.99-21.25 172.21-22.13 170.44-23 168.14-23L168.14-23Q166.04-23 164.34-22.15 162.64-21.3 161.64-19.88 160.64-18.45 160.64-16.6L160.64-16.6 157.49-16.6Q157.49-19.75 159.01-22.23 160.54-24.7 163.19-26.15 165.84-27.6 169.14-27.6L169.14-27.6Q172.59-27.6 175.31-26.13 178.04-24.65 179.61-21.8 181.19-18.95 181.19-14.8L181.19-14.8 181.19-2.5Q181.19-1.4 180.46-0.68 179.74 0.05 178.64 0.05ZM158.09 0.05L158.09 0.05Q156.99 0.05 156.26-0.68 155.54-1.4 155.54-2.5L155.54-2.5 155.54-24.8Q155.54-25.95 156.26-26.65 156.99-27.35 158.09-27.35L158.09-27.35Q159.24-27.35 159.94-26.65 160.64-25.95 160.64-24.8L160.64-24.8 160.64-2.5Q160.64-1.4 159.94-0.68 159.24 0.05 158.09 0.05ZM158.09-9.95L158.09-9.95Q156.99-9.95 156.26-10.68 155.54-11.4 155.54-12.5L155.54-12.5 155.54-36.5Q155.54-37.65 156.26-38.35 156.99-39.05 158.09-39.05L158.09-39.05Q159.24-39.05 159.94-38.35 160.64-37.65 160.64-36.5L160.64-36.5 160.64-12.5Q160.64-11.4 159.94-10.68 159.24-9.95 158.09-9.95ZM201.09 0.2L201.09 0.2Q197.44 0.2 194.54-1.63 191.64-3.45 189.96-6.58 188.29-9.7 188.29-13.65L188.29-13.65Q188.29-17.6 190.11-20.75 191.94-23.9 195.06-25.73 198.19-27.55 202.09-27.55L202.09-27.55Q205.99-27.55 209.09-25.73 212.19-23.9 214.01-20.75 215.84-17.6 215.84-13.65L215.84-13.65 213.89-13.65Q213.89-9.7 212.21-6.58 210.54-3.45 207.64-1.63 204.74 0.2 201.09 0.2ZM202.09-4.3L202.09-4.3Q204.64-4.3 206.64-5.53 208.64-6.75 209.79-8.88 210.94-11 210.94-13.65L210.94-13.65Q210.94-16.35 209.79-18.48 208.64-20.6 206.64-21.83 204.64-23.05 202.09-23.05L202.09-23.05Q199.59-23.05 197.56-21.83 195.54-20.6 194.36-18.48 193.19-16.35 193.19-13.65L193.19-13.65Q193.19-11 194.36-8.88 195.54-6.75 197.56-5.53 199.59-4.3 202.09-4.3ZM213.29 0.05L213.29 0.05Q212.19 0.05 211.46-0.68 210.74-1.4 210.74-2.5L210.74-2.5 210.74-10.15 211.69-15.45 215.84-13.65 215.84-2.5Q215.84-1.4 215.11-0.68 214.39 0.05 213.29 0.05ZM226.48 0L226.48 0Q225.38 0 224.66-0.73 223.93-1.45 223.93-2.55L223.93-2.55 223.93-24.8Q223.93-25.95 224.66-26.65 225.38-27.35 226.48-27.35L226.48-27.35Q227.63-27.35 228.33-26.65 229.03-25.95 229.03-24.8L229.03-24.8 229.03-2.55Q229.03-1.45 228.33-0.73 227.63 0 226.48 0ZM226.48-31.8L226.48-31.8Q225.13-31.8 224.16-32.77 223.18-33.75 223.18-35.1L223.18-35.1Q223.18-36.45 224.16-37.43 225.13-38.4 226.48-38.4L226.48-38.4Q227.83-38.4 228.81-37.43 229.78-36.45 229.78-35.1L229.78-35.1Q229.78-33.75 228.81-32.77 227.83-31.8 226.48-31.8ZM261.63 0.05L261.63 0.05Q260.53 0.05 259.81-0.68 259.08-1.4 259.08-2.5L259.08-2.5 259.08-14.8Q259.08-17.65 258.03-19.45 256.98-21.25 255.21-22.13 253.43-23 251.13-23L251.13-23Q249.03-23 247.33-22.15 245.63-21.3 244.63-19.88 243.63-18.45 243.63-16.6L243.63-16.6 240.48-16.6Q240.48-19.75 242.01-22.23 243.53-24.7 246.18-26.15 248.83-27.6 252.13-27.6L252.13-27.6Q255.58-27.6 258.31-26.13 261.03-24.65 262.61-21.8 264.18-18.95 264.18-14.8L264.18-14.8 264.18-2.5Q264.18-1.4 263.46-0.68 262.73 0.05 261.63 0.05ZM241.08 0.05L241.08 0.05Q239.98 0.05 239.26-0.68 238.53-1.4 238.53-2.5L238.53-2.5 238.53-24.8Q238.53-25.95 239.26-26.65 239.98-27.35 241.08-27.35L241.08-27.35Q242.23-27.35 242.93-26.65 243.63-25.95 243.63-24.8L243.63-24.8 243.63-2.5Q243.63-1.4 242.93-0.68 242.23 0.05 241.08 0.05Z" fill="#ffffff" data-fill-palette-color="primary"></path></g></svg></g></svg></g><g transform="matrix(1,0,0,1,46.68638976,46.12363749426936)"><svg viewBox="0 0 151.05858048 9.724626935899362" height="9.724626935899362" width="151.05858048"><g transform="matrix(1,0,0,1,0,0)"><svg width="151.05858048" viewBox="3.2 -39.55 793.3153845983923 51.55" height="9.724626935899362" data-palette-color="#ffffff"><g class="undefined-text-1" data-fill-palette-color="secondary" id="text-1"><path d="M22.5 0.5L22.5 0.5Q18.45 0.5 14.93-1.03 11.4-2.55 8.78-5.28 6.15-8 4.67-11.65 3.2-15.3 3.2-19.55L3.2-19.55Q3.2-23.75 4.67-27.38 6.15-31 8.78-33.73 11.4-36.45 14.9-38 18.4-39.55 22.5-39.55L22.5-39.55Q26.35-39.55 29.13-38.55 31.9-37.55 34.7-35.25L34.7-35.25Q35.1-34.95 35.33-34.63 35.55-34.3 35.63-33.98 35.7-33.65 35.7-33.2L35.7-33.2Q35.7-32.25 35.02-31.63 34.35-31 33.4-30.93 32.45-30.85 31.55-31.55L31.55-31.55Q29.7-33.15 27.73-34 25.75-34.85 22.5-34.85L22.5-34.85Q19.55-34.85 16.95-33.65 14.35-32.45 12.38-30.35 10.4-28.25 9.3-25.48 8.2-22.7 8.2-19.55L8.2-19.55Q8.2-16.35 9.3-13.58 10.4-10.8 12.38-8.7 14.35-6.6 16.95-5.43 19.55-4.25 22.5-4.25L22.5-4.25Q25.05-4.25 27.33-5.13 29.6-6 31.7-7.55L31.7-7.55Q32.6-8.2 33.48-8.13 34.35-8.05 34.95-7.43 35.55-6.8 35.55-5.7L35.55-5.7Q35.55-5.2 35.35-4.73 35.15-4.25 34.75-3.85L34.75-3.85Q32.05-1.7 28.98-0.6 25.9 0.5 22.5 0.5ZM66.45 0.05L66.45 0.05Q65.35 0.05 64.62-0.68 63.9-1.4 63.9-2.5L63.9-2.5 63.9-14.8Q63.9-17.65 62.85-19.45 61.8-21.25 60.02-22.13 58.25-23 55.95-23L55.95-23Q53.85-23 52.15-22.15 50.45-21.3 49.45-19.88 48.45-18.45 48.45-16.6L48.45-16.6 45.3-16.6Q45.3-19.75 46.82-22.23 48.35-24.7 51-26.15 53.65-27.6 56.95-27.6L56.95-27.6Q60.4-27.6 63.12-26.13 65.85-24.65 67.42-21.8 69-18.95 69-14.8L69-14.8 69-2.5Q69-1.4 68.27-0.68 67.55 0.05 66.45 0.05ZM45.9 0.05L45.9 0.05Q44.8 0.05 44.07-0.68 43.35-1.4 43.35-2.5L43.35-2.5 43.35-24.8Q43.35-25.95 44.07-26.65 44.8-27.35 45.9-27.35L45.9-27.35Q47.05-27.35 47.75-26.65 48.45-25.95 48.45-24.8L48.45-24.8 48.45-2.5Q48.45-1.4 47.75-0.68 47.05 0.05 45.9 0.05ZM45.9-9.95L45.9-9.95Q44.8-9.95 44.07-10.68 43.35-11.4 43.35-12.5L43.35-12.5 43.35-36.5Q43.35-37.65 44.07-38.35 44.8-39.05 45.9-39.05L45.9-39.05Q47.05-39.05 47.75-38.35 48.45-37.65 48.45-36.5L48.45-36.5 48.45-12.5Q48.45-11.4 47.75-10.68 47.05-9.95 45.9-9.95ZM88.9 0.2L88.9 0.2Q85.25 0.2 82.34-1.63 79.45-3.45 77.77-6.58 76.09-9.7 76.09-13.65L76.09-13.65Q76.09-17.6 77.92-20.75 79.75-23.9 82.87-25.73 86-27.55 89.9-27.55L89.9-27.55Q93.8-27.55 96.9-25.73 100-23.9 101.82-20.75 103.65-17.6 103.65-13.65L103.65-13.65 101.7-13.65Q101.7-9.7 100.02-6.58 98.34-3.45 95.45-1.63 92.55 0.2 88.9 0.2ZM89.9-4.3L89.9-4.3Q92.45-4.3 94.45-5.53 96.45-6.75 97.59-8.88 98.75-11 98.75-13.65L98.75-13.65Q98.75-16.35 97.59-18.48 96.45-20.6 94.45-21.83 92.45-23.05 89.9-23.05L89.9-23.05Q87.4-23.05 85.37-21.83 83.34-20.6 82.17-18.48 81-16.35 81-13.65L81-13.65Q81-11 82.17-8.88 83.34-6.75 85.37-5.53 87.4-4.3 89.9-4.3ZM101.09 0.05L101.09 0.05Q100 0.05 99.27-0.68 98.55-1.4 98.55-2.5L98.55-2.5 98.55-10.15 99.5-15.45 103.65-13.65 103.65-2.5Q103.65-1.4 102.92-0.68 102.2 0.05 101.09 0.05ZM114.29 0L114.29 0Q113.19 0 112.47-0.73 111.74-1.45 111.74-2.55L111.74-2.55 111.74-24.8Q111.74-25.95 112.47-26.65 113.19-27.35 114.29-27.35L114.29-27.35Q115.44-27.35 116.14-26.65 116.84-25.95 116.84-24.8L116.84-24.8 116.84-2.55Q116.84-1.45 116.14-0.73 115.44 0 114.29 0ZM114.29-31.8L114.29-31.8Q112.94-31.8 111.97-32.77 110.99-33.75 110.99-35.1L110.99-35.1Q110.99-36.45 111.97-37.43 112.94-38.4 114.29-38.4L114.29-38.4Q115.64-38.4 116.62-37.43 117.59-36.45 117.59-35.1L117.59-35.1Q117.59-33.75 116.62-32.77 115.64-31.8 114.29-31.8ZM149.44 0.05L149.44 0.05Q148.34 0.05 147.62-0.68 146.89-1.4 146.89-2.5L146.89-2.5 146.89-14.8Q146.89-17.65 145.84-19.45 144.79-21.25 143.02-22.13 141.24-23 138.94-23L138.94-23Q136.84-23 135.14-22.15 133.44-21.3 132.44-19.88 131.44-18.45 131.44-16.6L131.44-16.6 128.29-16.6Q128.29-19.75 129.81-22.23 131.34-24.7 133.99-26.15 136.64-27.6 139.94-27.6L139.94-27.6Q143.39-27.6 146.12-26.13 148.84-24.65 150.42-21.8 151.99-18.95 151.99-14.8L151.99-14.8 151.99-2.5Q151.99-1.4 151.27-0.68 150.54 0.05 149.44 0.05ZM128.89 0.05L128.89 0.05Q127.79 0.05 127.06-0.68 126.34-1.4 126.34-2.5L126.34-2.5 126.34-24.8Q126.34-25.95 127.06-26.65 127.79-27.35 128.89-27.35L128.89-27.35Q130.04-27.35 130.74-26.65 131.44-25.95 131.44-24.8L131.44-24.8 131.44-2.5Q131.44-1.4 130.74-0.68 130.04 0.05 128.89 0.05Z" fill="#ffffff" data-fill-palette-color="primary"></path><path d="M159.44 0L159.44 0Q158.49 0 157.74-0.7 156.99-1.4 156.99-2.55L156.99-2.55 156.99-27.2Q156.99-30.8 158.42-33.45 159.84-36.1 162.39-37.58 164.94-39.05 168.29-39.05L168.29-39.05Q169.39-39.05 170.12-38.4 170.84-37.75 170.84-36.75L170.84-36.75Q170.84-35.8 170.12-35.13 169.39-34.45 168.29-34.45L168.29-34.45Q166.44-34.45 165.04-33.6 163.64-32.75 162.87-31.25 162.09-29.75 162.09-27.7L162.09-27.7 162.09-2.55Q162.09-1.4 161.39-0.7 160.69 0 159.44 0ZM167.19-22.05L154.84-22.05Q153.79-22.05 153.14-22.65 152.49-23.25 152.49-24.15L152.49-24.15Q152.49-25.15 153.14-25.75 153.79-26.35 154.84-26.35L154.84-26.35 167.19-26.35Q168.24-26.35 168.89-25.75 169.54-25.15 169.54-24.15L169.54-24.15Q169.54-23.25 168.89-22.65 168.24-22.05 167.19-22.05L167.19-22.05ZM186.34 0.25L186.34 0.25Q182.89 0.25 180.16-1.23 177.44-2.7 175.86-5.55 174.29-8.4 174.29-12.55L174.29-12.55 174.29-24.85Q174.29-25.95 175.01-26.68 175.74-27.4 176.84-27.4L176.84-27.4Q177.94-27.4 178.66-26.68 179.39-25.95 179.39-24.85L179.39-24.85 179.39-12.55Q179.39-9.75 180.44-7.93 181.49-6.1 183.29-5.23 185.09-4.35 187.34-4.35L187.34-4.35Q189.49-4.35 191.16-5.2 192.84-6.05 193.84-7.5 194.84-8.95 194.84-10.75L194.84-10.75 197.99-10.75Q197.99-7.65 196.46-5.15 194.94-2.65 192.31-1.2 189.69 0.25 186.34 0.25ZM197.39 0L197.39 0Q196.29 0 195.56-0.73 194.84-1.45 194.84-2.55L194.84-2.55 194.84-24.85Q194.84-26 195.56-26.7 196.29-27.4 197.39-27.4L197.39-27.4Q198.54-27.4 199.24-26.7 199.94-26 199.94-24.85L199.94-24.85 199.94-2.55Q199.94-1.45 199.24-0.73 198.54 0 197.39 0ZM232.04 0.05L232.04 0.05Q230.94 0.05 230.21-0.68 229.49-1.4 229.49-2.5L229.49-2.5 229.49-14.8Q229.49-17.65 228.44-19.45 227.39-21.25 225.61-22.13 223.84-23 221.54-23L221.54-23Q219.44-23 217.74-22.15 216.04-21.3 215.04-19.88 214.04-18.45 214.04-16.6L214.04-16.6 210.89-16.6Q210.89-19.75 212.41-22.23 213.94-24.7 216.59-26.15 219.24-27.6 222.54-27.6L222.54-27.6Q225.99-27.6 228.71-26.13 231.44-24.65 233.01-21.8 234.59-18.95 234.59-14.8L234.59-14.8 234.59-2.5Q234.59-1.4 233.86-0.68 233.14 0.05 232.04 0.05ZM211.49 0.05L211.49 0.05Q210.39 0.05 209.66-0.68 208.94-1.4 208.94-2.5L208.94-2.5 208.94-24.8Q208.94-25.95 209.66-26.65 210.39-27.35 211.49-27.35L211.49-27.35Q212.64-27.35 213.34-26.65 214.04-25.95 214.04-24.8L214.04-24.8 214.04-2.5Q214.04-1.4 213.34-0.68 212.64 0.05 211.49 0.05ZM255.43 0.2L255.43 0.2Q251.43 0.2 248.31-1.63 245.18-3.45 243.41-6.58 241.63-9.7 241.63-13.65L241.63-13.65Q241.63-17.7 243.38-20.85 245.13-24 248.18-25.78 251.23-27.55 255.18-27.55L255.18-27.55Q258.13-27.55 260.58-26.43 263.03-25.3 264.98-23.05L264.98-23.05Q265.68-22.25 265.48-21.4 265.28-20.55 264.38-19.9L264.38-19.9Q263.68-19.4 262.83-19.58 261.98-19.75 261.28-20.45L261.28-20.45Q258.83-23.05 255.18-23.05L255.18-23.05Q252.63-23.05 250.68-21.88 248.73-20.7 247.63-18.6 246.53-16.5 246.53-13.65L246.53-13.65Q246.53-10.95 247.66-8.85 248.78-6.75 250.78-5.53 252.78-4.3 255.43-4.3L255.43-4.3Q257.18-4.3 258.51-4.73 259.83-5.15 260.93-6.05L260.93-6.05Q261.73-6.7 262.58-6.78 263.43-6.85 264.08-6.3L264.08-6.3Q264.93-5.6 265.03-4.73 265.13-3.85 264.43-3.15L264.43-3.15Q260.83 0.2 255.43 0.2ZM283.93 0L283.03 0Q280.53 0 278.53-1.28 276.53-2.55 275.38-4.75 274.23-6.95 274.23-9.7L274.23-9.7 274.23-33.55Q274.23-34.65 274.93-35.35 275.63-36.05 276.73-36.05L276.73-36.05Q277.83-36.05 278.53-35.35 279.23-34.65 279.23-33.55L279.23-33.55 279.23-9.7Q279.23-7.7 280.33-6.35 281.43-5 283.03-5L283.03-5 284.73-5Q285.63-5 286.26-4.3 286.88-3.6 286.88-2.5L286.88-2.5Q286.88-1.4 286.06-0.7 285.23 0 283.93 0L283.93 0ZM283.48-22.05L271.93-22.05Q270.88-22.05 270.23-22.65 269.58-23.25 269.58-24.15L269.58-24.15Q269.58-25.15 270.23-25.75 270.88-26.35 271.93-26.35L271.93-26.35 283.48-26.35Q284.53-26.35 285.18-25.75 285.83-25.15 285.83-24.15L285.83-24.15Q285.83-23.25 285.18-22.65 284.53-22.05 283.48-22.05L283.48-22.05ZM296.18 0L296.18 0Q295.08 0 294.35-0.73 293.63-1.45 293.63-2.55L293.63-2.55 293.63-24.8Q293.63-25.95 294.35-26.65 295.08-27.35 296.18-27.35L296.18-27.35Q297.33-27.35 298.03-26.65 298.73-25.95 298.73-24.8L298.73-24.8 298.73-2.55Q298.73-1.45 298.03-0.73 297.33 0 296.18 0ZM296.18-31.8L296.18-31.8Q294.83-31.8 293.85-32.77 292.88-33.75 292.88-35.1L292.88-35.1Q292.88-36.45 293.85-37.43 294.83-38.4 296.18-38.4L296.18-38.4Q297.53-38.4 298.5-37.43 299.48-36.45 299.48-35.1L299.48-35.1Q299.48-33.75 298.5-32.77 297.53-31.8 296.18-31.8ZM320.63 0.2L320.63 0.2Q316.58 0.2 313.48-1.58 310.38-3.35 308.6-6.48 306.83-9.6 306.83-13.65L306.83-13.65Q306.83-17.75 308.6-20.88 310.38-24 313.48-25.78 316.58-27.55 320.63-27.55L320.63-27.55Q324.63-27.55 327.73-25.78 330.83-24 332.6-20.88 334.38-17.75 334.38-13.65L334.38-13.65Q334.38-9.6 332.63-6.48 330.88-3.35 327.78-1.58 324.68 0.2 320.63 0.2ZM320.63-4.3L320.63-4.3Q323.23-4.3 325.23-5.5 327.23-6.7 328.35-8.8 329.48-10.9 329.48-13.65L329.48-13.65Q329.48-16.4 328.35-18.53 327.23-20.65 325.23-21.85 323.23-23.05 320.63-23.05L320.63-23.05Q318.03-23.05 316.03-21.85 314.03-20.65 312.88-18.53 311.73-16.4 311.73-13.65L311.73-13.65Q311.73-10.9 312.88-8.8 314.03-6.7 316.03-5.5 318.03-4.3 320.63-4.3ZM365.07 0.05L365.07 0.05Q363.97 0.05 363.25-0.68 362.52-1.4 362.52-2.5L362.52-2.5 362.52-14.8Q362.52-17.65 361.47-19.45 360.42-21.25 358.65-22.13 356.87-23 354.57-23L354.57-23Q352.47-23 350.77-22.15 349.07-21.3 348.07-19.88 347.07-18.45 347.07-16.6L347.07-16.6 343.92-16.6Q343.92-19.75 345.45-22.23 346.97-24.7 349.62-26.15 352.27-27.6 355.57-27.6L355.57-27.6Q359.02-27.6 361.75-26.13 364.47-24.65 366.05-21.8 367.62-18.95 367.62-14.8L367.62-14.8 367.62-2.5Q367.62-1.4 366.9-0.68 366.17 0.05 365.07 0.05ZM344.52 0.05L344.52 0.05Q343.42 0.05 342.7-0.68 341.97-1.4 341.97-2.5L341.97-2.5 341.97-24.8Q341.97-25.95 342.7-26.65 343.42-27.35 344.52-27.35L344.52-27.35Q345.67-27.35 346.37-26.65 347.07-25.95 347.07-24.8L347.07-24.8 347.07-2.5Q347.07-1.4 346.37-0.68 345.67 0.05 344.52 0.05ZM386.02 0.2L386.02 0.2Q382.52 0.2 379.55-0.88 376.57-1.95 374.92-3.6L374.92-3.6Q374.17-4.4 374.3-5.43 374.42-6.45 375.27-7.1L375.27-7.1Q376.27-7.9 377.25-7.78 378.22-7.65 378.92-6.9L378.92-6.9Q379.77-5.95 381.65-5.13 383.52-4.3 385.82-4.3L385.82-4.3Q388.72-4.3 390.25-5.25 391.77-6.2 391.82-7.7L391.82-7.7Q391.87-9.2 390.4-10.3 388.92-11.4 385.02-12.1L385.02-12.1Q379.97-13.1 377.7-15.1 375.42-17.1 375.42-20L375.42-20Q375.42-22.55 376.92-24.23 378.42-25.9 380.77-26.73 383.12-27.55 385.67-27.55L385.67-27.55Q388.97-27.55 391.52-26.5 394.07-25.45 395.57-23.6L395.57-23.6Q396.27-22.8 396.22-21.93 396.17-21.05 395.37-20.45L395.37-20.45Q394.57-19.9 393.47-20.1 392.37-20.3 391.62-21L391.62-21Q390.37-22.2 388.92-22.65 387.47-23.1 385.57-23.1L385.57-23.1Q383.37-23.1 381.85-22.35 380.32-21.6 380.32-20.15L380.32-20.15Q380.32-19.25 380.8-18.53 381.27-17.8 382.67-17.23 384.07-16.65 386.77-16.1L386.77-16.1Q390.52-15.35 392.7-14.2 394.87-13.05 395.82-11.53 396.77-10 396.77-8L396.77-8Q396.77-5.7 395.55-3.85 394.32-2 391.95-0.9 389.57 0.2 386.02 0.2Z" fill="#ffffff" data-fill-palette-color="primary"></path><path d="M414.12 0.2L414.12 0.2Q409.97 0.2 406.75-1.58 403.52-3.35 401.7-6.48 399.87-9.6 399.87-13.65L399.87-13.65Q399.87-17.75 401.6-20.88 403.32-24 406.37-25.78 409.42-27.55 413.37-27.55L413.37-27.55Q417.27-27.55 420.07-25.83 422.87-24.1 424.35-21.08 425.82-18.05 425.82-14.1L425.82-14.1Q425.82-13.15 425.17-12.53 424.52-11.9 423.52-11.9L423.52-11.9 403.37-11.9 403.37-15.9 423.37-15.9 421.32-14.5Q421.27-17 420.32-18.98 419.37-20.95 417.62-22.1 415.87-23.25 413.37-23.25L413.37-23.25Q410.52-23.25 408.5-22 406.47-20.75 405.42-18.57 404.37-16.4 404.37-13.65L404.37-13.65Q404.37-10.9 405.62-8.75 406.87-6.6 409.07-5.35 411.27-4.1 414.12-4.1L414.12-4.1Q415.67-4.1 417.3-4.67 418.92-5.25 419.92-6L419.92-6Q420.67-6.55 421.55-6.58 422.42-6.6 423.07-6.05L423.07-6.05Q423.92-5.3 423.97-4.4 424.02-3.5 423.17-2.85L423.17-2.85Q421.47-1.5 418.95-0.65 416.42 0.2 414.12 0.2ZM443.72 0.2L443.72 0.2Q440.07 0.2 437.17-1.63 434.27-3.45 432.59-6.58 430.92-9.7 430.92-13.65L430.92-13.65Q430.92-17.6 432.74-20.75 434.57-23.9 437.69-25.73 440.82-27.55 444.72-27.55L444.72-27.55Q448.62-27.55 451.72-25.73 454.82-23.9 456.64-20.75 458.47-17.6 458.47-13.65L458.47-13.65 456.52-13.65Q456.52-9.7 454.84-6.58 453.17-3.45 450.27-1.63 447.37 0.2 443.72 0.2ZM444.72-4.3L444.72-4.3Q447.27-4.3 449.27-5.53 451.27-6.75 452.42-8.88 453.57-11 453.57-13.65L453.57-13.65Q453.57-16.35 452.42-18.48 451.27-20.6 449.27-21.83 447.27-23.05 444.72-23.05L444.72-23.05Q442.22-23.05 440.19-21.83 438.17-20.6 436.99-18.48 435.82-16.35 435.82-13.65L435.82-13.65Q435.82-11 436.99-8.88 438.17-6.75 440.19-5.53 442.22-4.3 444.72-4.3ZM455.92 0.05L455.92 0.05Q454.82 0.05 454.09-0.68 453.37-1.4 453.37-2.5L453.37-2.5 453.37-10.15 454.32-15.45 458.47-13.65 458.47-2.5Q458.47-1.4 457.74-0.68 457.02 0.05 455.92 0.05ZM476.02 0.2L476.02 0.2Q472.52 0.2 469.54-0.88 466.57-1.95 464.91-3.6L464.91-3.6Q464.16-4.4 464.29-5.43 464.41-6.45 465.27-7.1L465.27-7.1Q466.27-7.9 467.24-7.78 468.22-7.65 468.91-6.9L468.91-6.9Q469.77-5.95 471.64-5.13 473.52-4.3 475.82-4.3L475.82-4.3Q478.72-4.3 480.24-5.25 481.77-6.2 481.82-7.7L481.82-7.7Q481.86-9.2 480.39-10.3 478.92-11.4 475.02-12.1L475.02-12.1Q469.97-13.1 467.69-15.1 465.41-17.1 465.41-20L465.41-20Q465.41-22.55 466.91-24.23 468.41-25.9 470.77-26.73 473.11-27.55 475.67-27.55L475.67-27.55Q478.97-27.55 481.52-26.5 484.07-25.45 485.57-23.6L485.57-23.6Q486.27-22.8 486.22-21.93 486.17-21.05 485.36-20.45L485.36-20.45Q484.57-19.9 483.47-20.1 482.36-20.3 481.61-21L481.61-21Q480.36-22.2 478.92-22.65 477.47-23.1 475.57-23.1L475.57-23.1Q473.36-23.1 471.84-22.35 470.32-21.6 470.32-20.15L470.32-20.15Q470.32-19.25 470.79-18.53 471.27-17.8 472.67-17.23 474.07-16.65 476.77-16.1L476.77-16.1Q480.52-15.35 482.69-14.2 484.86-13.05 485.82-11.53 486.77-10 486.77-8L486.77-8Q486.77-5.7 485.54-3.85 484.32-2 481.94-0.9 479.57 0.2 476.02 0.2ZM496.26 0L496.26 0Q495.16 0 494.44-0.73 493.71-1.45 493.71-2.55L493.71-2.55 493.71-24.8Q493.71-25.95 494.44-26.65 495.16-27.35 496.26-27.35L496.26-27.35Q497.41-27.35 498.11-26.65 498.81-25.95 498.81-24.8L498.81-24.8 498.81-2.55Q498.81-1.45 498.11-0.73 497.41 0 496.26 0ZM496.26-31.8L496.26-31.8Q494.91-31.8 493.94-32.77 492.96-33.75 492.96-35.1L492.96-35.1Q492.96-36.45 493.94-37.43 494.91-38.4 496.26-38.4L496.26-38.4Q497.61-38.4 498.59-37.43 499.56-36.45 499.56-35.1L499.56-35.1Q499.56-33.75 498.59-32.77 497.61-31.8 496.26-31.8ZM514.91 0L514.81 0Q512.61 0 510.91-1.2 509.21-2.4 508.26-4.48 507.31-6.55 507.31-9.25L507.31-9.25 507.31-36.55Q507.31-37.65 508.01-38.35 508.71-39.05 509.81-39.05L509.81-39.05Q510.91-39.05 511.61-38.35 512.31-37.65 512.31-36.55L512.31-36.55 512.31-9.25Q512.31-7.4 513.01-6.2 513.71-5 514.81-5L514.81-5 516.06-5Q517.06-5 517.69-4.3 518.31-3.6 518.31-2.5L518.31-2.5Q518.31-1.4 517.36-0.7 516.41 0 514.91 0L514.91 0ZM528.21 12L528.21 12Q527.71 12 527.01 11.7L527.01 11.7Q524.81 10.7 525.81 8.55L525.81 8.55 541.06-25.9Q542.06-28 544.21-27.1L544.21-27.1Q546.46-26.15 545.46-23.95L545.46-23.95 530.16 10.45Q529.56 12 528.21 12ZM534.11-1.1L534.11-1.1Q533.16-0.7 532.33-1.03 531.51-1.35 531.01-2.3L531.01-2.3 519.56-24.05Q519.06-25 519.43-25.88 519.81-26.75 520.76-27.15L520.76-27.15Q521.71-27.55 522.56-27.23 523.41-26.9 523.86-25.95L523.86-25.95 534.81-4.2Q535.31-3.25 535.18-2.38 535.06-1.5 534.11-1.1Z" fill="#ffffff" data-fill-palette-color="primary"></path><path d="M561.668 0.2L561.668 0.2Q558.018 0.2 555.118-1.63 552.218-3.45 550.548-6.58 548.868-9.7 548.868-13.65L548.868-13.65Q548.868-17.6 550.698-20.75 552.518-23.9 555.648-25.73 558.768-27.55 562.668-27.55L562.668-27.55Q566.568-27.55 569.668-25.73 572.768-23.9 574.598-20.75 576.418-17.6 576.418-13.65L576.418-13.65 574.468-13.65Q574.468-9.7 572.798-6.58 571.118-3.45 568.218-1.63 565.318 0.2 561.668 0.2ZM562.668-4.3L562.668-4.3Q565.218-4.3 567.218-5.53 569.218-6.75 570.368-8.88 571.518-11 571.518-13.65L571.518-13.65Q571.518-16.35 570.368-18.48 569.218-20.6 567.218-21.83 565.218-23.05 562.668-23.05L562.668-23.05Q560.168-23.05 558.148-21.83 556.118-20.6 554.948-18.48 553.768-16.35 553.768-13.65L553.768-13.65Q553.768-11 554.948-8.88 556.118-6.75 558.148-5.53 560.168-4.3 562.668-4.3ZM573.868 0.05L573.868 0.05Q572.768 0.05 572.048-0.68 571.318-1.4 571.318-2.5L571.318-2.5 571.318-10.15 572.268-15.45 576.418-13.65 576.418-2.5Q576.418-1.4 575.698-0.68 574.968 0.05 573.868 0.05ZM607.118 0.05L607.118 0.05Q606.018 0.05 605.288-0.68 604.568-1.4 604.568-2.5L604.568-2.5 604.568-14.8Q604.568-17.65 603.518-19.45 602.468-21.25 600.688-22.13 598.918-23 596.618-23L596.618-23Q594.518-23 592.818-22.15 591.118-21.3 590.118-19.88 589.118-18.45 589.118-16.6L589.118-16.6 585.968-16.6Q585.968-19.75 587.488-22.23 589.018-24.7 591.668-26.15 594.318-27.6 597.618-27.6L597.618-27.6Q601.068-27.6 603.788-26.13 606.518-24.65 608.088-21.8 609.668-18.95 609.668-14.8L609.668-14.8 609.668-2.5Q609.668-1.4 608.938-0.68 608.218 0.05 607.118 0.05ZM586.568 0.05L586.568 0.05Q585.468 0.05 584.738-0.68 584.018-1.4 584.018-2.5L584.018-2.5 584.018-24.8Q584.018-25.95 584.738-26.65 585.468-27.35 586.568-27.35L586.568-27.35Q587.718-27.35 588.418-26.65 589.118-25.95 589.118-24.8L589.118-24.8 589.118-2.5Q589.118-1.4 588.418-0.68 587.718 0.05 586.568 0.05ZM630.518 0.2L630.518 0.2Q626.608 0.2 623.488-1.63 620.358-3.45 618.538-6.6 616.708-9.75 616.708-13.7L616.708-13.7Q616.708-17.65 618.388-20.78 620.068-23.9 622.958-25.73 625.858-27.55 629.518-27.55L629.518-27.55Q632.458-27.55 634.958-26.33 637.458-25.1 639.158-23L639.158-23 639.158-36.5Q639.158-37.65 639.888-38.35 640.608-39.05 641.708-39.05L641.708-39.05Q642.858-39.05 643.568-38.35 644.268-37.65 644.268-36.5L644.268-36.5 644.268-13.7Q644.268-9.75 642.438-6.6 640.608-3.45 637.518-1.63 634.408 0.2 630.518 0.2ZM630.518-4.3L630.518-4.3Q633.068-4.3 635.068-5.53 637.068-6.75 638.208-8.9 639.358-11.05 639.358-13.7L639.358-13.7Q639.358-16.4 638.208-18.5 637.068-20.6 635.068-21.83 633.068-23.05 630.518-23.05L630.518-23.05Q628.018-23.05 625.988-21.83 623.958-20.6 622.788-18.5 621.608-16.4 621.608-13.7L621.608-13.7Q621.608-11.05 622.788-8.9 623.958-6.75 625.988-5.53 628.018-4.3 630.518-4.3Z" fill="#ffffff" data-fill-palette-color="primary"></path><path d="M658.718 0.2L658.718 0.2Q655.218 0.2 652.248-0.88 649.268-1.95 647.618-3.6L647.618-3.6Q646.868-4.4 646.998-5.43 647.118-6.45 647.968-7.1L647.968-7.1Q648.968-7.9 649.948-7.78 650.918-7.65 651.618-6.9L651.618-6.9Q652.468-5.95 654.348-5.13 656.218-4.3 658.518-4.3L658.518-4.3Q661.418-4.3 662.948-5.25 664.468-6.2 664.518-7.7L664.518-7.7Q664.568-9.2 663.088-10.3 661.618-11.4 657.718-12.1L657.718-12.1Q652.668-13.1 650.398-15.1 648.118-17.1 648.118-20L648.118-20Q648.118-22.55 649.618-24.23 651.118-25.9 653.468-26.73 655.818-27.55 658.368-27.55L658.368-27.55Q661.668-27.55 664.218-26.5 666.768-25.45 668.268-23.6L668.268-23.6Q668.968-22.8 668.918-21.93 668.868-21.05 668.068-20.45L668.068-20.45Q667.268-19.9 666.168-20.1 665.068-20.3 664.318-21L664.318-21Q663.068-22.2 661.618-22.65 660.168-23.1 658.268-23.1L658.268-23.1Q656.068-23.1 654.548-22.35 653.018-21.6 653.018-20.15L653.018-20.15Q653.018-19.25 653.488-18.53 653.968-17.8 655.368-17.23 656.768-16.65 659.468-16.1L659.468-16.1Q663.218-15.35 665.398-14.2 667.568-13.05 668.518-11.53 669.468-10 669.468-8L669.468-8Q669.468-5.7 668.248-3.85 667.018-2 664.648-0.9 662.268 0.2 658.718 0.2ZM687.318 0.2L687.318 0.2Q683.668 0.2 680.768-1.63 677.868-3.45 676.188-6.58 674.518-9.7 674.518-13.65L674.518-13.65Q674.518-17.6 676.338-20.75 678.168-23.9 681.288-25.73 684.418-27.55 688.318-27.55L688.318-27.55Q692.218-27.55 695.318-25.73 698.418-23.9 700.238-20.75 702.068-17.6 702.068-13.65L702.068-13.65 700.118-13.65Q700.118-9.7 698.438-6.58 696.768-3.45 693.868-1.63 690.968 0.2 687.318 0.2ZM688.318-4.3L688.318-4.3Q690.868-4.3 692.868-5.53 694.868-6.75 696.018-8.88 697.168-11 697.168-13.65L697.168-13.65Q697.168-16.35 696.018-18.48 694.868-20.6 692.868-21.83 690.868-23.05 688.318-23.05L688.318-23.05Q685.818-23.05 683.788-21.83 681.768-20.6 680.588-18.48 679.418-16.35 679.418-13.65L679.418-13.65Q679.418-11 680.588-8.88 681.768-6.75 683.788-5.53 685.818-4.3 688.318-4.3ZM699.518 0.05L699.518 0.05Q698.418 0.05 697.688-0.68 696.968-1.4 696.968-2.5L696.968-2.5 696.968-10.15 697.918-15.45 702.068-13.65 702.068-2.5Q702.068-1.4 701.338-0.68 700.618 0.05 699.518 0.05ZM712.608 0L712.608 0Q711.668 0 710.918-0.7 710.168-1.4 710.168-2.55L710.168-2.55 710.168-27.2Q710.168-30.8 711.588-33.45 713.018-36.1 715.568-37.58 718.108-39.05 721.468-39.05L721.468-39.05Q722.568-39.05 723.288-38.4 724.018-37.75 724.018-36.75L724.018-36.75Q724.018-35.8 723.288-35.13 722.568-34.45 721.468-34.45L721.468-34.45Q719.608-34.45 718.218-33.6 716.818-32.75 716.038-31.25 715.268-29.75 715.268-27.7L715.268-27.7 715.268-2.55Q715.268-1.4 714.568-0.7 713.858 0 712.608 0ZM720.358-22.05L708.018-22.05Q706.968-22.05 706.318-22.65 705.668-23.25 705.668-24.15L705.668-24.15Q705.668-25.15 706.318-25.75 706.968-26.35 708.018-26.35L708.018-26.35 720.358-26.35Q721.418-26.35 722.068-25.75 722.718-25.15 722.718-24.15L722.718-24.15Q722.718-23.25 722.068-22.65 721.418-22.05 720.358-22.05L720.358-22.05ZM740.858 0.2L740.858 0.2Q736.708 0.2 733.488-1.58 730.258-3.35 728.438-6.48 726.608-9.6 726.608-13.65L726.608-13.65Q726.608-17.75 728.338-20.88 730.058-24 733.108-25.78 736.158-27.55 740.108-27.55L740.108-27.55Q744.008-27.55 746.808-25.83 749.608-24.1 751.088-21.08 752.558-18.05 752.558-14.1L752.558-14.1Q752.558-13.15 751.908-12.53 751.258-11.9 750.258-11.9L750.258-11.9 730.108-11.9 730.108-15.9 750.108-15.9 748.058-14.5Q748.008-17 747.058-18.98 746.108-20.95 744.358-22.1 742.608-23.25 740.108-23.25L740.108-23.25Q737.258-23.25 735.238-22 733.208-20.75 732.158-18.57 731.108-16.4 731.108-13.65L731.108-13.65Q731.108-10.9 732.358-8.75 733.608-6.6 735.808-5.35 738.008-4.1 740.858-4.1L740.858-4.1Q742.408-4.1 744.038-4.67 745.658-5.25 746.658-6L746.658-6Q747.408-6.55 748.288-6.58 749.158-6.6 749.808-6.05L749.808-6.05Q750.658-5.3 750.708-4.4 750.758-3.5 749.908-2.85L749.908-2.85Q748.208-1.5 745.688-0.65 743.158 0.2 740.858 0.2ZM765.658 0L765.558 0Q763.358 0 761.658-1.2 759.958-2.4 759.008-4.48 758.058-6.55 758.058-9.25L758.058-9.25 758.058-36.55Q758.058-37.65 758.758-38.35 759.458-39.05 760.558-39.05L760.558-39.05Q761.658-39.05 762.358-38.35 763.058-37.65 763.058-36.55L763.058-36.55 763.058-9.25Q763.058-7.4 763.758-6.2 764.458-5 765.558-5L765.558-5 766.808-5Q767.808-5 768.438-4.3 769.058-3.6 769.058-2.5L769.058-2.5Q769.058-1.4 768.108-0.7 767.158 0 765.658 0L765.658 0ZM778.958 12L778.958 12Q778.458 12 777.758 11.7L777.758 11.7Q775.558 10.7 776.558 8.55L776.558 8.55 791.808-25.9Q792.808-28 794.958-27.1L794.958-27.1Q797.208-26.15 796.208-23.95L796.208-23.95 780.908 10.45Q780.308 12 778.958 12ZM784.858-1.1L784.858-1.1Q783.908-0.7 783.078-1.03 782.258-1.35 781.758-2.3L781.758-2.3 770.308-24.05Q769.808-25 770.178-25.88 770.558-26.75 771.508-27.15L771.508-27.15Q772.458-27.55 773.308-27.23 774.158-26.9 774.608-25.95L774.608-25.95 785.558-4.2Q786.058-3.25 785.928-2.38 785.808-1.5 784.858-1.1Z" fill="#ffffff" data-fill-palette-color="primary"></path></g></svg></g></svg></g></svg></g></svg></g><g transform="matrix(1,0,0,1,53.632683442879056,0)"><svg viewBox="0 0 137.16599311424187 137.16599311424187" height="137.16599311424187" width="137.16599311424187"><g><svg xmlns="http://www.w3.org/2000/svg" version="1.1" xmlns:xlink="http://www.w3.org/1999/xlink" xmlns:svgjs="http://svgjs.com/svgjs"></svg></g><g id="icon-0"><svg viewBox="0 0 137.16599311424187 137.16599311424187" height="137.16599311424187" width="137.16599311424187"><g><path d="M0 68.583c0-37.877 30.706-68.583 68.583-68.583 37.877 0 68.583 30.706 68.583 68.583 0 37.877-30.706 68.583-68.583 68.583-37.877 0-68.583-30.706-68.583-68.583zM68.583 133.801c36.019 0 65.218-29.199 65.218-65.218 0-36.019-29.199-65.218-65.218-65.218-36.019 0-65.218 29.199-65.218 65.218 0 36.019 29.199 65.218 65.218 65.218z" data-fill-palette-color="accent" fill="#ffffff" stroke="transparent"></path><ellipse rx="67.89716659154972" ry="67.89716659154972" cx="68.58299655712094" cy="68.58299655712094" fill="#ffffff" stroke="transparent" stroke-width="0" fill-opacity="1" data-fill-palette-color="accent"></ellipse></g><g transform="matrix(1,0,0,1,34.74049677911009,27.8076828831811)"><svg viewBox="0 0 67.6849995560217 81.55062734787967" height="81.55062734787967" width="67.6849995560217"><g><svg xmlns="http://www.w3.org/2000/svg" data-name="Layer 1" viewBox="11.799996680494063 3.9999999999999964 76.43854607867083 92.09738386887277" x="0" y="0" height="81.55062734787967" width="67.6849995560217" class="icon-symbol-0" fill="#161618" data-fill-palette-color="quaternary" id="symbol-0"><g data-name="Group" fill="#161618" data-fill-palette-color="quaternary"><path data-name="Compound Path" d="M81.2 40.3V28.7H53V23.9a10.3 10.3 0 0 0 7.2-9.7 10.2 10.2 0 0 0-20.4 0A10.3 10.3 0 0 0 47 23.9v4.8H18.8V40.3a10.4 10.4 0 0 0-7 9.7 10.2 10.2 0 1 0 13-9.8V34.7H47v5.6a10.1 10.1 0 0 0 0 19.4v5.8H32.3V76.2a10.2 10.2 0 1 0 6-0.1V71.5H61.7v4.6a10.1 10.1 0 0 0-7.4 9.7 10.2 10.2 0 1 0 13.4-9.6V65.5H53V59.7a10.1 10.1 0 0 0 0-19.4V34.7H75.2v5.5a10.2 10.2 0 1 0 6 0.1ZM26.2 50A4.2 4.2 0 1 1 22 45.8 4.2 4.2 0 0 1 26.2 50ZM78 54.2A4.2 4.2 0 1 1 82.2 50 4.2 4.2 0 0 1 78 54.2Z" fill="#161618" data-fill-palette-color="quaternary"></path></g></svg></g></svg></g></svg></g></svg></g><g></g></svg></g></svg></g><path d="M0 41.215L0 1 177.284 1 177.284 41.215 174.843 41.215 174.843 3.441 2.441 3.441 2.441 41.215 0 41.215M0 205.985L0 246.2 177.284 246.2 177.284 205.985 174.843 205.985 174.843 243.759 2.441 243.759 2.441 205.985 0 205.985" fill="#ffffff" stroke="transparent" data-fill-palette-color="primary"></path></svg></g></svg><rect width="177.28364881045175" height="247.2" fill="transparent" stroke="transparent"></rect></g></svg></g></svg>