<?xml version="1.0" encoding="UTF-8" standalone="no"?>
<!-- Acknowledgement -->

<!-- FastChain's logo was created using Inkscape (http://www.inkscape.org/) -->

<!-- FastChain's icon is a combination of two icon's from 'https://www.flaticon.com/uicons'-->

<svg
   width="965.98358"
   height="1158.9351"
   viewBox="0 0 255.58315 306.63489"
   version="1.1"
   id="svg154"
   xmlns:xlink="http://www.w3.org/1999/xlink"
   xmlns="http://www.w3.org/2000/svg"
   xmlns:svg="http://www.w3.org/2000/svg"
   xmlns:rdf="http://www.w3.org/1999/02/22-rdf-syntax-ns#"
   xmlns:cc="http://creativecommons.org/ns#"
   xmlns:dc="http://purl.org/dc/elements/1.1/">
  <title
     id="title363">Fastchain_banner</title>
  <defs
     id="defs151">
    <linearGradient
       id="linearGradient13354">
      <stop
         style="stop-color:#353592;stop-opacity:1;"
         offset="0"
         id="stop13352" />
      <stop
         style="stop-color:#3838b6;stop-opacity:1;"
         offset="1"
         id="stop13350" />
    </linearGradient>
    <linearGradient
       id="linearGradient1237">
      <stop
         style="stop-color:#ffffff;stop-opacity:1;"
         offset="0"
         id="stop1233" />
      <stop
         style="stop-color:#ffffff;stop-opacity:0;"
         offset="1"
         id="stop1235" />
    </linearGradient>
    <clipPath
       id="clipPath16034">
      <rect
         style="opacity:1;fill:none;fill-opacity:1;stroke:#282c4c;stroke-width:0.0369928;stroke-dasharray:none;stroke-opacity:0.707819;filter:url(#filter8458)"
         id="rect16036"
         width="29.361238"
         height="34.395142"
         x="-2.6806209"
         y="-1.2218081" />
    </clipPath>
    <clipPath
       id="clipPath15263">
      <rect
         style="opacity:1;fill:none;fill-opacity:1;stroke:#282c4c;stroke-width:0.0369928;stroke-dasharray:none;stroke-opacity:0.707819"
         id="rect15265"
         width="29.361242"
         height="34.395145"
         x="-2.6806207"
         y="-1.2218081" />
    </clipPath>
    <clipPath
       id="clipPath15259">
      <rect
         style="opacity:1;fill:none;fill-opacity:1;stroke:#282c4c;stroke-width:0.0739856;stroke-dasharray:none;stroke-opacity:0.707819"
         id="rect15261"
         width="58.722485"
         height="68.790291"
         x="-17.361242"
         y="-11.443616" />
    </clipPath>
    <linearGradient
       xlink:href="#linearGradient13354"
       id="linearGradient13356"
       x1="1.9489613"
       y1="11.99994"
       x2="22.051039"
       y2="11.99994"
       gradientUnits="userSpaceOnUse" />
    <linearGradient
       xlink:href="#linearGradient13354"
       id="linearGradient14721"
       gradientUnits="userSpaceOnUse"
       x1="1.9489613"
       y1="11.99994"
       x2="22.051039"
       y2="11.99994" />
    <linearGradient
       xlink:href="#linearGradient13354"
       id="linearGradient14723"
       gradientUnits="userSpaceOnUse"
       x1="1.9489613"
       y1="11.99994"
       x2="22.051039"
       y2="11.99994" />
  </defs>
  <g
     id="layer1"
     style="stroke:#242456;stroke-width:0.264583;stroke-dasharray:none;stroke-opacity:1"
     transform="translate(-41.541752,-16.015892)">
    <g
       style="display:inline;fill:url(#linearGradient13356);fill-opacity:1;stroke:#242456;stroke-width:0.0272297;stroke-dasharray:none;stroke-opacity:1"
       id="g47"
       transform="matrix(12.76178,0,0,12.76178,16.191972,16.192708)"
       clip-path="url(#clipPath16034)">
      <path
         d="M 18.581,2.14 12.316,0.051 a 1,1 0 0 0 -0.632,0 L 5.418,2.14 A 4.993,4.993 0 0 0 2,6.883 V 12 c 0,7.563 9.2,11.74 9.594,11.914 a 1,1 0 0 0 0.812,0 C 12.8,23.74 22,19.563 22,12 V 6.883 A 4.993,4.993 0 0 0 18.581,2.14 Z M 20,12 c 0,5.455 -6.319,9.033 -8,9.889 C 10.317,21.036 4,17.469 4,12 V 6.883 A 3,3 0 0 1 6.051,4.037 L 12,2.054 17.948,4.037 A 3,3 0 0 1 20,6.883 Z"
         id="path34"
         style="display:inline;fill:url(#linearGradient14721);fill-opacity:1;stroke:#242456;stroke-width:0.0272297;stroke-dasharray:none;stroke-opacity:1"
         clip-path="url(#clipPath15263)" />
      <path
         d="M 21.864,18.127 A 5.337,5.337 0 0 0 16.674,14 H 13.5 v -1.616 a 6.282,6.282 0 1 0 -3,0 V 14 H 7.326 a 5.337,5.337 0 0 0 -5.19,4.127 3,3 0 1 0 2.921,0.69 A 2.331,2.331 0 0 1 7.326,17 H 10.5 v 1.4 a 3,3 0 1 0 3,0 V 17 h 3.174 a 2.331,2.331 0 0 1 2.269,1.817 3,3 0 1 0 2.921,-0.69 z M 8.718,6.283 A 3.282,3.282 0 1 1 12,9.565 3.286,3.286 0 0 1 8.718,6.283 Z"
         stroke-width="0.2"
         transform="matrix(0.5,0,0,0.5,6,4.5)"
         id="path36"
         style="display:inline;fill:url(#linearGradient14723);fill-opacity:1;stroke:#242456;stroke-width:0.0544594;stroke-dasharray:none;stroke-opacity:1"
         clip-path="url(#clipPath15259)" />
    </g>
  </g>
  <metadata
     id="metadata361">
    <rdf:RDF>
      <cc:Work
         rdf:about="">
        <dc:title>Fastchain_banner</dc:title>
        <dc:creator>
          <cc:Agent>
            <dc:title>MARSO Adnan</dc:title>
          </cc:Agent>
        </dc:creator>
      </cc:Work>
    </rdf:RDF>
  </metadata>
</svg>
